<svg xmlns="http://www.w3.org/2000/svg" width="1536" height="1324" viewBox="0 0 1536 1324" version="1.1"><path d="M 1150.287 251.740 C 1153.469 251.939, 1158.419 251.937, 1161.287 251.736 C 1164.154 251.535, 1161.550 251.372, 1155.500 251.374 C 1149.450 251.376, 1147.104 251.541, 1150.287 251.740 M 683.750 347.732 C 686.087 347.943, 689.913 347.943, 692.250 347.732 C 694.587 347.522, 692.675 347.349, 688 347.349 C 683.325 347.349, 681.413 347.522, 683.750 347.732 M 500 475.913 C 500 476.666, 507.433 477, 524.167 477 C 537.458 477, 548.146 476.832, 547.917 476.626 C 547.688 476.420, 536.813 475.931, 523.750 475.539 C 506.879 475.033, 500 475.141, 500 475.913 M 1181 476.036 C 1177.975 476.387, 1186.263 476.747, 1199.417 476.837 C 1212.571 476.927, 1223.146 476.836, 1222.917 476.636 C 1222.097 475.921, 1186.392 475.410, 1181 476.036 M 203.750 476.740 C 207.188 476.936, 212.813 476.936, 216.250 476.740 C 219.688 476.545, 216.875 476.385, 210 476.385 C 203.125 476.385, 200.313 476.545, 203.750 476.740 M 316.750 476.744 C 321.288 476.929, 328.712 476.929, 333.250 476.744 C 337.788 476.559, 334.075 476.407, 325 476.407 C 315.925 476.407, 312.212 476.559, 316.750 476.744 M 391.784 476.738 C 394.689 476.941, 399.189 476.939, 401.784 476.734 C 404.378 476.528, 402 476.363, 396.500 476.365 C 391 476.368, 388.878 476.536, 391.784 476.738 M 810.250 476.750 C 829.362 476.902, 860.637 476.902, 879.750 476.750 C 898.862 476.598, 883.225 476.473, 845 476.473 C 806.775 476.473, 791.137 476.598, 810.250 476.750 M 1255.321 476.749 C 1270.622 476.905, 1295.372 476.905, 1310.321 476.749 C 1325.269 476.594, 1312.750 476.467, 1282.500 476.467 C 1252.250 476.467, 1240.019 476.594, 1255.321 476.749 M 1482.250 476.742 C 1485.963 476.934, 1492.037 476.934, 1495.750 476.742 C 1499.463 476.549, 1496.425 476.392, 1489 476.392 C 1481.575 476.392, 1478.537 476.549, 1482.250 476.742 M 309.001 549.723 C 304.877 549.929, 301.074 550.526, 300.551 551.049 C 299.950 551.650, 314.170 552, 339.241 552 C 362.007 552, 379.122 551.612, 379.445 551.089 C 379.755 550.588, 377.194 549.999, 373.754 549.780 C 365.771 549.272, 318.873 549.231, 309.001 549.723 M 776.294 550.040 C 749.414 551.061, 760.734 552, 799.083 551.930 C 820.213 551.891, 836.600 551.496, 835.500 551.051 C 833.711 550.328, 819.319 549.758, 798 549.567 C 793.875 549.530, 784.107 549.743, 776.294 550.040 M 1199.330 549.858 C 1195.387 550.211, 1191.824 550.837, 1191.413 551.250 C 1191.003 551.663, 1248.904 551.931, 1320.083 551.848 C 1391.263 551.764, 1446.575 551.359, 1443 550.947 C 1434.782 550.002, 1208.998 548.993, 1199.330 549.858 M 233 551 C 231.516 551.475, 237.331 551.841, 247.309 551.900 C 258.285 551.965, 263.904 551.653, 263.500 551 C 262.765 549.811, 236.712 549.811, 233 551 M 269.500 551.053 C 268.334 551.523, 272.712 551.846, 280 551.827 C 288.439 551.806, 291.402 551.536, 289.121 550.998 C 284.773 549.971, 272.094 550.007, 269.500 551.053 M 554 551 C 552.925 551.695, 553.971 551.974, 557.691 551.985 C 560.546 551.993, 563.160 551.550, 563.500 551 C 564.305 549.697, 556.016 549.697, 554 551 M 654 550.986 C 652.998 551.643, 662.023 551.974, 681.191 551.985 C 698.099 551.994, 710.121 551.613, 710.465 551.057 C 711.268 549.758, 655.978 549.688, 654 550.986 M 844 551 C 844 551.645, 854.203 551.975, 872.750 551.930 C 889.733 551.888, 900.681 551.508, 899.500 551 C 896.599 549.753, 844 549.753, 844 551 M 913.500 550.988 C 909.937 551.485, 912.501 551.731, 922.417 551.843 C 930.071 551.929, 936.132 551.799, 935.887 551.554 C 935.043 550.709, 918.494 550.291, 913.500 550.988 M 941.480 551.086 C 940.368 551.520, 944.943 551.890, 951.917 551.930 C 958.746 551.968, 964.146 551.818, 963.917 551.594 C 963.081 550.781, 943.403 550.335, 941.480 551.086 M 968.500 551 C 966.850 551.420, 987.100 551.810, 1013.500 551.866 C 1042.976 551.930, 1062.079 551.595, 1063 551 C 1064.806 549.833, 973.086 549.833, 968.500 551 M 1167.803 551.150 C 1166.536 551.508, 1170.862 551.845, 1177.417 551.900 C 1183.971 551.955, 1189.085 551.752, 1188.783 551.449 C 1187.973 550.639, 1170.494 550.390, 1167.803 551.150 M 164.797 551.745 C 169.361 551.930, 176.561 551.929, 180.797 551.742 C 185.034 551.555, 181.300 551.404, 172.500 551.405 C 163.700 551.406, 160.234 551.559, 164.797 551.745 M 1147.280 551.736 C 1149.909 551.943, 1153.959 551.940, 1156.280 551.731 C 1158.601 551.521, 1156.450 551.352, 1151.500 551.355 C 1146.550 551.358, 1144.651 551.530, 1147.280 551.736 M 1459.750 551.732 C 1462.088 551.943, 1465.912 551.943, 1468.250 551.732 C 1470.588 551.522, 1468.675 551.349, 1464 551.349 C 1459.325 551.349, 1457.412 551.522, 1459.750 551.732 M 1119 592.004 C 1115.032 592.406, 1121.071 592.691, 1134.500 592.736 C 1146.600 592.776, 1157.400 592.433, 1158.500 591.974 C 1160.846 590.996, 1128.702 591.021, 1119 592.004 M 1164 591.785 C 1164 592.967, 1174.771 593.180, 1175.492 592.013 C 1175.888 591.372, 1173.894 591, 1170.059 591 C 1166.727 591, 1164 591.353, 1164 591.785 M 1242.844 592.240 C 1248.065 592.930, 1250.509 592.891, 1251.294 592.106 C 1252.102 591.298, 1250.121 591.036, 1243.950 591.134 L 1235.500 591.268 1242.844 592.240 M 1264.500 592 C 1264.840 592.550, 1267.090 593, 1269.500 593 C 1271.910 593, 1274.160 592.550, 1274.500 592 C 1274.884 591.379, 1272.991 591, 1269.500 591 C 1266.009 591, 1264.116 591.379, 1264.500 592 M 1290.169 592.068 C 1292.197 592.547, 1298.010 592.564, 1303.169 592.105 L 1312.500 591.275 1299.500 591.238 C 1290.075 591.211, 1287.509 591.439, 1290.169 592.068 M 1288.651 675.750 C 1288.394 676.163, 1291.405 676.377, 1295.342 676.226 C 1307.526 675.760, 1308.934 675.327, 1298.809 675.160 C 1293.479 675.072, 1288.908 675.337, 1288.651 675.750 M 825.500 677.926 C 819.695 678.324, 836.650 678.694, 865.917 678.806 C 893.646 678.913, 916.114 678.781, 915.846 678.513 C 915.034 677.701, 836.228 677.189, 825.500 677.926 M 823.500 712 C 815.292 712.503, 817.083 712.645, 833.500 712.791 C 845.045 712.894, 854.134 712.560, 855 712 C 856.647 710.936, 840.874 710.936, 823.500 712 M 869.500 712 C 872.228 713.172, 876.186 713.172, 878 712 C 879.056 711.318, 877.723 711.047, 873.500 711.086 C 869.233 711.125, 868.078 711.389, 869.500 712 M 111.768 789.518 C 111.621 789.639, 102.742 790.042, 92.039 790.414 C 81.335 790.785, 72.373 791.294, 72.122 791.544 C 71.235 792.432, 303.506 791.965, 304.910 791.077 C 305.845 790.485, 303.994 790.025, 299.410 789.711 C 292.752 789.255, 112.314 789.069, 111.768 789.518 M 348 790 C 342.358 790.297, 339.244 790.805, 340.332 791.250 C 342.916 792.308, 442.765 792.189, 443.421 791.127 C 443.718 790.647, 439.132 789.942, 433.230 789.559 C 422.045 788.835, 364.491 789.132, 348 790 M 545.688 789.980 C 538.091 790.426, 531.603 791.063, 531.271 791.396 C 530.939 791.728, 553.354 791.986, 581.083 791.970 C 618.944 791.947, 631.017 791.659, 629.560 790.813 C 627.143 789.411, 565.755 788.801, 545.688 789.980 M 686.938 789.396 C 686.652 789.681, 682.938 789.995, 678.684 790.094 C 674.430 790.193, 670.709 790.662, 670.416 791.137 C 670.117 791.620, 740.898 791.955, 831.191 791.898 C 944.662 791.826, 991.462 791.487, 989 790.755 C 985.407 789.686, 687.985 788.348, 686.938 789.396 M 1048.830 789.931 C 1008.986 791.477, 1046.276 791.987, 1189.083 791.848 C 1287.358 791.752, 1343.084 791.358, 1339 790.789 C 1331.829 789.789, 1072.260 789.021, 1048.830 789.931 M 1160.603 1004.045 C 1157.909 1006.792, 1155.921 1009.255, 1156.185 1009.518 C 1156.449 1009.782, 1159.026 1007.523, 1161.912 1004.499 C 1164.799 1001.474, 1166.787 999.012, 1166.330 999.026 C 1165.874 999.040, 1163.296 1001.299, 1160.603 1004.045 M 675.750 1211.737 C 678.638 1211.939, 683.362 1211.939, 686.250 1211.737 C 689.138 1211.535, 686.775 1211.370, 681 1211.370 C 675.225 1211.370, 672.862 1211.535, 675.750 1211.737 M 704.299 1211.745 C 709.139 1211.929, 716.789 1211.928, 721.299 1211.743 C 725.810 1211.558, 721.850 1211.408, 712.500 1211.409 C 703.150 1211.410, 699.460 1211.562, 704.299 1211.745" stroke="none" fill="#055287" fill-rule="evenodd"/><path d="M 906 56.359 C 898.575 59.267, 886.650 64.263, 879.500 67.459 C 872.350 70.655, 861.325 75.230, 855 77.626 C 840.296 83.196, 838.686 84.834, 839.540 93.350 C 839.879 96.733, 840.309 100.002, 840.495 100.615 C 840.890 101.916, 846.396 102.768, 885.500 107.577 C 901.450 109.539, 916.300 111.456, 918.500 111.838 L 922.500 112.533 922.768 136.766 L 923.036 161 906.038 161 C 879.191 161, 860.218 162.705, 849.002 166.127 C 843.030 167.949, 838.990 169.764, 838.128 171.013 C 837.373 172.106, 836.198 173, 835.517 173 C 834.750 173, 834.451 173.909, 834.733 175.383 C 834.983 176.693, 834.696 178.070, 834.094 178.442 C 833.411 178.864, 833 178.157, 833 176.559 C 833 174.703, 832.473 174, 831.082 174 C 827.225 174, 767.495 194.334, 750.500 201.433 C 745.550 203.500, 738.575 206.089, 735 207.185 C 723.962 210.569, 724.546 208.766, 724.205 240.526 C 723.969 262.511, 724.168 267.996, 725.205 267.978 C 727.293 267.943, 747.257 262.591, 764 257.579 C 772.525 255.026, 784.225 251.531, 790 249.812 C 809.087 244.130, 831.351 235.171, 832.220 232.822 C 832.489 232.095, 832.786 222.725, 832.880 212 C 833.081 189.070, 833.591 184.289, 835.972 183.015 C 838.888 181.454, 850.806 180.594, 852.302 181.836 C 853.037 182.445, 855.407 182.759, 857.569 182.534 C 859.731 182.308, 872.075 181.604, 885 180.970 C 906.258 179.927, 914.032 179.699, 920.750 179.925 L 923 180 923 201.309 L 923 222.617 913.750 223.914 C 893.616 226.735, 871.799 232.488, 856.436 239.027 C 851.302 241.212, 846.656 243, 846.110 243 C 845.564 243, 844.800 243.515, 844.410 244.145 C 843.922 244.935, 844.523 245.133, 846.351 244.784 C 849.791 244.126, 849.740 245.281, 846.250 247.079 C 844.737 247.859, 843.128 248.948, 842.674 249.498 C 842.130 250.158, 841.691 250.122, 841.388 249.392 C 839.572 245.018, 838.618 244.687, 831.417 245.938 C 827.613 246.600, 819.100 248.875, 812.500 250.994 C 805.900 253.114, 795.688 256.206, 789.807 257.867 C 783.926 259.527, 774.026 262.892, 767.807 265.345 C 761.588 267.798, 750.425 271.706, 743 274.029 C 735.575 276.353, 728.261 278.884, 726.747 279.654 L 723.993 281.055 724.239 291.383 C 724.419 298.938, 724.119 302.152, 723.120 303.355 C 720.905 306.024, 720 305.271, 719.993 300.750 C 719.989 298.413, 719.699 293.462, 719.348 289.750 C 718.740 283.315, 718.589 282.999, 716.105 282.978 C 713.837 282.959, 647.923 304.159, 616.500 315.014 C 610.450 317.104, 601.450 320.006, 596.500 321.462 C 591.550 322.918, 586.150 324.565, 584.500 325.122 C 578.462 327.162, 543.139 337.287, 530.500 340.602 C 523.350 342.476, 515.803 344.683, 513.730 345.505 C 506.053 348.549, 506.500 350.029, 506.500 321.585 C 506.500 307.606, 506.134 295.803, 505.687 295.355 C 505.239 294.907, 502.314 295.499, 499.187 296.672 C 431.103 322.193, 410.566 330.062, 408.500 331.420 C 406.698 332.605, 406.398 334.475, 405.471 350.347 C 404.893 360.237, 403.966 368.434, 403.357 369.043 C 402.761 369.639, 398.499 371.405, 393.887 372.967 C 389.274 374.529, 374.700 379.953, 361.500 385.021 C 348.300 390.088, 332.824 395.755, 327.108 397.612 C 315.371 401.428, 312.935 402.825, 315.509 404.265 C 318.439 405.905, 334.650 403.323, 367.500 395.985 C 388.073 391.389, 403.166 388.156, 407.500 387.416 C 409.700 387.040, 416.225 385.646, 422 384.317 C 465.329 374.350, 508.346 366.556, 558.500 359.587 C 592.171 354.909, 607.209 353.351, 642 350.941 C 658.225 349.817, 674.425 348.481, 678 347.974 C 683.892 347.137, 717.974 345.797, 742 345.457 C 747.225 345.383, 761.400 344.971, 773.500 344.541 C 799.854 343.605, 849.950 345.669, 881.500 348.990 C 887.550 349.627, 893.520 350.171, 894.768 350.199 C 899.763 350.311, 906.366 347.442, 917.165 340.465 C 923.399 336.438, 936.375 328.319, 946 322.423 C 955.625 316.528, 965.075 310.665, 967 309.395 C 971.223 306.609, 1003.396 291.038, 1018 284.712 C 1033.072 278.184, 1052.891 270.708, 1064.725 267.086 C 1102.766 255.445, 1149.895 248.615, 1168.940 251.983 C 1171.998 252.524, 1179.976 253.488, 1186.669 254.124 C 1193.362 254.761, 1199.383 255.618, 1200.048 256.029 C 1200.845 256.522, 1196.021 261.837, 1185.878 271.638 C 1163.110 293.641, 1147.924 308.831, 1133.031 324.500 C 1125.713 332.200, 1116.892 341.425, 1113.431 345 C 1107.114 351.525, 1100.687 358.754, 1074.213 389.115 C 1066.355 398.127, 1056.638 409.100, 1052.621 413.500 C 1048.604 417.900, 1042.914 424.425, 1039.977 428 C 1037.040 431.575, 1031.677 437.650, 1028.060 441.500 C 1024.442 445.350, 1018.874 451.770, 1015.686 455.766 C 1002.186 472.688, 994.916 476.602, 978 476.054 C 944.788 474.980, 931.159 474.934, 930.565 475.895 C 930.106 476.637, 929.343 476.606, 928.040 475.793 C 926.617 474.904, 924.314 474.912, 918.335 475.827 C 912.797 476.675, 890.577 477.015, 842.608 476.986 C 765.267 476.939, 773.079 475.951, 767.775 486.452 C 763.116 495.672, 749.040 535.763, 748.978 539.987 C 748.966 540.819, 748.076 542.625, 747 544 C 745.924 545.375, 745.034 547.477, 745.022 548.670 C 745.002 550.602, 745.699 550.916, 751.355 551.521 C 755.188 551.932, 760.001 551.726, 763.482 551.004 C 769.499 549.755, 828.149 549.361, 833 550.537 C 838.999 551.992, 844 552.241, 844 551.085 C 844 550.201, 850.968 550.048, 872.250 550.466 C 887.788 550.772, 904.325 550.941, 909 550.841 C 919.990 550.608, 926.955 550.613, 935 550.859 C 938.575 550.969, 943.750 550.973, 946.500 550.869 C 949.250 550.765, 954.875 550.692, 959 550.708 C 963.125 550.724, 989.969 550.605, 1018.653 550.444 C 1076.590 550.119, 1074.146 550.405, 1079.766 543.280 C 1084.905 536.764, 1108 502.716, 1108 501.655 C 1108 501.089, 1120.068 485.705, 1132.189 470.821 C 1134.285 468.247, 1136 465.819, 1136 465.426 C 1136 465.032, 1136.929 463.763, 1138.065 462.605 C 1139.772 460.866, 1148.718 449.371, 1165 427.996 C 1171.546 419.402, 1189.645 397.112, 1192.639 393.958 C 1194.487 392.010, 1196 389.994, 1196 389.480 C 1196 388.965, 1197.703 386.959, 1199.784 385.022 C 1201.865 383.085, 1206.309 378.125, 1209.659 374 C 1213.009 369.875, 1216.706 365.643, 1217.875 364.595 C 1219.044 363.547, 1220 362.283, 1220 361.786 C 1220 361.288, 1222.234 358.546, 1224.965 355.691 C 1234.155 346.083, 1248 330.218, 1248 329.294 C 1248 328.790, 1251.487 325.043, 1255.750 320.969 C 1260.013 316.894, 1265.012 311.746, 1266.861 309.530 C 1271.264 304.250, 1302.777 272.183, 1312.723 262.861 C 1317 258.852, 1326.350 249.986, 1333.500 243.159 C 1340.650 236.332, 1351.338 226.932, 1357.250 222.271 C 1367.854 213.911, 1369.209 212.197, 1366.750 210.260 C 1364.964 208.853, 1345.778 201.560, 1337.500 199.141 C 1319.276 193.816, 1289.105 189.010, 1260.500 186.875 C 1226.460 184.334, 1166.750 186.304, 1148.334 190.575 C 1144.582 191.445, 1139.337 192.340, 1136.677 192.563 C 1134.017 192.787, 1129.545 193.652, 1126.739 194.485 C 1123.933 195.318, 1120.546 196, 1119.212 196 C 1117.878 196, 1113.797 196.678, 1110.143 197.506 C 1074.053 205.690, 1062.311 208.547, 1052.339 211.570 C 1041.244 214.933, 1029.634 219.332, 1027.500 220.982 C 1026.950 221.407, 1025.487 222.066, 1024.250 222.445 L 1022 223.135 1022 201.567 L 1022 180 1051.750 179.947 C 1068.112 179.917, 1088.925 179.789, 1098 179.662 L 1114.500 179.430 1114.345 170.643 C 1114.259 165.810, 1113.938 161.605, 1113.631 161.298 C 1113.093 160.759, 1092.615 160.414, 1044.619 160.134 L 1021.738 160 1022.394 134.250 C 1023.007 110.208, 1023.131 97.999, 1022.824 92 C 1022.753 90.625, 1023.047 86.504, 1023.476 82.842 L 1024.257 76.184 1021.131 74.568 C 1014.027 70.894, 938.926 53.701, 934.766 54.796 C 934.362 54.903, 932.562 54.094, 930.766 52.999 C 925.655 49.883, 920.876 50.531, 906 56.359 M 930.440 65.750 C 930.015 66.713, 929.470 74.298, 929.230 82.606 C 928.805 97.297, 928.851 97.728, 930.895 98.262 C 933.650 98.983, 934.110 98.061, 934.676 90.682 C 934.937 87.282, 935.657 83.460, 936.277 82.188 C 937.125 80.449, 937.106 79.400, 936.202 77.952 C 935.541 76.893, 935 73.321, 935 70.014 C 935 64.780, 934.754 64, 933.107 64 C 932.066 64, 930.866 64.787, 930.440 65.750 M 825 99.981 C 823.625 100.426, 817.550 103.258, 811.500 106.275 C 805.450 109.292, 785.425 118.197, 767 126.065 C 748.575 133.934, 731.866 141.384, 729.870 142.622 C 727.734 143.947, 725.779 146.196, 725.120 148.086 C 723.940 151.472, 723.524 193.623, 724.630 197.750 C 725.075 199.408, 725.974 200, 728.048 200 C 730.797 200, 733.800 198.963, 758.500 189.488 C 778.677 181.749, 791.714 177.072, 810.332 170.897 C 820.140 167.644, 829.027 164.521, 830.082 163.956 C 831.911 162.977, 832 161.450, 832 130.965 L 832 99 829.750 99.086 C 828.513 99.133, 826.375 99.536, 825 99.981 M 930 137.198 L 930 161 969.375 161 C 991.031 161, 1010.156 160.719, 1011.875 160.375 L 1015 159.750 1015 143.394 C 1015 127.247, 1014.971 127.032, 1012.750 126.539 C 1006.930 125.249, 978.059 120.532, 955.250 117.146 L 930 113.397 930 137.198 M 704 153.719 C 698.775 156.218, 689.100 160.410, 682.500 163.036 C 667.931 168.831, 628.650 185.732, 619.927 189.957 C 616.451 191.641, 613.252 193.577, 612.818 194.260 C 612.385 194.942, 612.024 206.427, 612.015 219.781 C 612.003 239.293, 612.266 244.165, 613.354 244.583 C 614.099 244.868, 619.162 243.306, 624.604 241.111 C 638.427 235.536, 652.345 230.182, 660 227.495 C 687.463 217.857, 712.277 207.902, 715.093 205.393 C 716.379 204.247, 716.810 200.691, 717.330 186.926 C 718.186 164.240, 717.286 148.968, 715.098 149.088 C 714.219 149.136, 709.225 151.220, 704 153.719 M 930.997 179.833 C 929.897 180.201, 929.598 212.897, 930.658 216.857 C 931.217 218.946, 931.701 219.143, 934.895 218.590 C 945.255 216.793, 961.847 214.913, 975.342 214.007 C 983.679 213.447, 992.525 212.761, 995 212.482 C 997.475 212.204, 1003.247 211.687, 1007.826 211.334 C 1015.656 210.730, 1016.119 210.567, 1015.590 208.596 C 1015.281 207.443, 1015.021 200.547, 1015.014 193.272 L 1015 180.043 973.497 179.772 C 950.670 179.622, 931.545 179.650, 930.997 179.833 M 575 207.474 C 559.875 213.660, 544.575 219.988, 541 221.536 C 537.425 223.084, 530.648 225.960, 525.940 227.927 C 521.233 229.894, 516.283 232.234, 514.940 233.128 L 512.500 234.752 512.750 256.587 C 512.887 268.596, 513.255 279.227, 513.567 280.211 C 513.879 281.195, 514.826 282, 515.672 282 C 516.517 282, 523.124 279.713, 530.354 276.918 C 546.602 270.638, 548.728 269.850, 573.500 260.932 C 603.197 250.241, 603.650 250.012, 604.270 245.359 C 604.663 242.415, 604.499 200.694, 604.080 196.750 C 603.959 195.614, 604.376 195.461, 575 207.474 M 705 219.178 C 700.875 220.869, 688.500 225.526, 677.500 229.526 C 635.582 244.771, 621.354 250.121, 617 252.275 L 612.500 254.500 612.233 279.036 C 612.030 297.656, 612.271 303.963, 613.233 305.195 C 614.379 306.664, 616.500 306.163, 635.500 299.935 C 700.406 278.657, 715.611 273.529, 716.652 272.566 C 717.495 271.787, 717.658 264.034, 717.259 243.750 C 716.625 211.585, 717.796 213.932, 705 219.178 M 1011 218.563 C 1009.075 219.291, 1006.538 219.913, 1005.361 219.944 C 1004.185 219.975, 998.335 221.538, 992.361 223.417 C 983.565 226.185, 959.299 232.970, 935.829 239.225 C 931.367 240.414, 929.897 243.379, 929.664 251.664 C 929.502 257.443, 929.526 257.497, 932.203 257.219 C 933.690 257.065, 941.115 254.429, 948.703 251.361 C 956.291 248.293, 967.904 243.864, 974.510 241.519 C 981.115 239.174, 991.015 235.231, 996.510 232.756 C 1002.004 230.282, 1008.590 227.704, 1011.145 227.028 C 1015.062 225.991, 1015.881 225.346, 1016.368 222.910 C 1016.956 219.970, 1016.307 216.903, 1015.143 217.119 C 1014.789 217.185, 1012.925 217.835, 1011 218.563 M 481.500 246.010 C 469.950 250.890, 456.225 256.528, 451 258.540 C 440.494 262.584, 412.611 275.970, 409.552 278.438 C 406.988 280.507, 406.191 287.245, 406.084 307.750 C 405.989 326.200, 405.590 325.522, 414.220 321.602 C 428.335 315.190, 453.364 305.338, 494.500 290.001 C 497.250 288.975, 500.453 287.869, 501.618 287.543 C 506.625 286.139, 506.907 284.804, 505.962 267 C 505.480 257.925, 505.067 247.463, 505.043 243.750 C 505.013 239.001, 504.629 237.021, 503.750 237.069 C 503.063 237.107, 493.050 241.131, 481.500 246.010 M 909 245.463 C 897.158 247.763, 888.405 249.119, 869.713 251.548 C 848.565 254.295, 835.219 257.209, 833.765 259.395 C 833.361 260.003, 833.024 267.703, 833.015 276.507 C 833.007 285.310, 832.596 293.921, 832.103 295.642 C 831.609 297.362, 831.497 300.114, 831.853 301.757 L 832.500 304.744 840 301.812 C 856.480 295.369, 865.007 291.513, 876 285.535 C 889.535 278.175, 906.771 269.656, 916.250 265.641 C 922.872 262.836, 923 262.711, 923 259.038 C 923 253.223, 921.783 242.987, 921.108 243.114 C 920.773 243.177, 915.325 244.234, 909 245.463 M 595 259.918 C 591.975 260.913, 581.625 264.868, 572 268.706 C 555.455 275.303, 532.933 284.023, 519.397 289.072 L 513.293 291.349 512.664 304.467 C 512.318 311.682, 512.310 318.691, 512.647 320.043 C 512.984 321.394, 513.472 326.212, 513.732 330.750 C 514.035 336.028, 514.619 338.995, 515.353 338.985 C 516.783 338.966, 529.686 334.851, 536.905 332.111 C 539.878 330.982, 555.628 325.975, 571.905 320.984 C 592.835 314.566, 602.012 311.304, 603.250 309.844 C 604.814 307.997, 605 305.140, 605 282.889 L 605 258 602.750 258.054 C 601.513 258.083, 598.025 258.922, 595 259.918 M 488.524 475.813 C 488.350 475.985, 478.567 476.246, 466.783 476.393 C 455 476.540, 444.903 476.942, 444.346 477.286 C 440.945 479.388, 434.750 492.876, 427.942 513 C 427.477 514.375, 424.202 523.375, 420.665 533 C 417.128 542.625, 414.432 550.836, 414.674 551.247 C 415.383 552.449, 499.024 552.058, 501.295 550.842 C 502.696 550.092, 503.455 550.118, 503.958 550.932 C 504.467 551.755, 511.551 551.931, 529.581 551.570 C 567.455 550.811, 565 551.106, 565 547.309 C 565 545.554, 564.550 543.840, 564 543.500 C 563.450 543.160, 563 541.063, 563 538.841 C 563 529.968, 554.695 488.381, 551.648 482 L 549.500 477.500 524.750 477.233 C 511.137 477.085, 500 476.577, 500 476.103 C 500 475.327, 489.289 475.057, 488.524 475.813 M 177.030 477.630 C 172.608 479.489, 168.310 484.927, 164.911 492.960 C 159.841 504.945, 148 540.174, 148 543.274 C 148 544.992, 148.968 546.993, 150.475 548.389 C 152.900 550.637, 153.509 550.694, 180.725 551.218 C 196.001 551.512, 213.675 551.554, 220 551.312 C 258.409 549.842, 261.301 549.823, 263.555 551.029 C 265.249 551.936, 266.633 551.975, 268.916 551.179 C 272.138 550.056, 284.809 550.229, 293.732 551.518 C 297.624 552.081, 299.393 551.919, 300.636 550.887 C 301.997 549.757, 309.654 549.492, 341.904 549.459 L 381.500 549.418 383.702 544.959 C 384.914 542.506, 386.795 538.025, 387.882 535 C 388.970 531.975, 391.275 525.675, 393.006 521 C 398.985 504.845, 407 480.709, 407 478.858 C 407 476.523, 414.356 476.659, 283.122 476.564 C 207.775 476.509, 179.008 476.798, 177.030 477.630 M 635.822 478.392 C 632.647 481.752, 631.523 484.457, 623.675 507.607 C 611.758 542.762, 609.160 550.984, 609.850 551.355 C 610.207 551.546, 620.175 551.535, 632 551.330 C 643.825 551.124, 666.100 550.748, 681.500 550.494 C 696.900 550.240, 709.793 550.025, 710.151 550.016 C 711.245 549.989, 715.027 542.967, 717.673 536.052 C 725.983 514.328, 735.412 486.530, 736.430 480.750 L 737.091 477 732.295 476.892 C 729.658 476.832, 707.321 476.671, 682.657 476.533 C 638.182 476.285, 637.798 476.300, 635.822 478.392 M 1156.692 477.345 C 1155.487 477.810, 1153.150 478.413, 1151.500 478.684 C 1147.216 479.390, 1145.549 481.231, 1139.472 491.964 C 1132.103 504.978, 1112.666 549.651, 1113.668 551.271 C 1113.953 551.733, 1126.632 551.837, 1141.843 551.502 C 1157.054 551.168, 1173.775 550.949, 1179 551.017 C 1190.604 551.167, 1189.641 551.212, 1200 550.027 C 1210.198 548.860, 1431.634 549.658, 1443.256 550.904 C 1447.522 551.361, 1456.297 551.516, 1462.756 551.248 C 1477.985 550.617, 1478.809 549.903, 1486.366 530.814 C 1487.821 527.137, 1491.301 519.262, 1494.098 513.314 C 1503.120 494.132, 1507.407 480.007, 1504.952 477.553 C 1503.659 476.259, 1160.040 476.055, 1156.692 477.345 M 417.216 590.747 L 404.933 591.062 402.958 594.281 C 401.871 596.051, 400.025 600.650, 398.855 604.500 C 397.685 608.350, 395.889 613.608, 394.864 616.185 C 393.839 618.762, 393 621.935, 393 623.235 C 393 624.536, 392.545 626.055, 391.990 626.610 C 391.434 627.166, 388.114 636.143, 384.612 646.560 C 381.110 656.977, 375.925 672.250, 373.090 680.500 C 370.255 688.750, 367.055 698.650, 365.980 702.500 C 364.224 708.785, 358.735 725.650, 355.891 733.500 C 353.872 739.070, 349.774 751.479, 348.956 754.500 C 348.509 756.150, 345.861 764.193, 343.071 772.373 C 340.282 780.553, 338 787.774, 338 788.421 C 338 790.255, 445.049 789.673, 446.059 787.834 C 446.675 786.711, 449.409 778.591, 456.106 758 C 456.732 756.075, 460.170 746.625, 463.746 737 C 467.322 727.375, 471.045 717.025, 472.020 714 C 472.994 710.975, 475.226 704, 476.981 698.500 C 483.820 677.062, 492.257 653.433, 493.560 652.072 C 494.738 650.841, 495.013 650.910, 495.557 652.572 C 495.904 653.633, 496.561 655.625, 497.018 657 C 497.475 658.375, 498.130 661.300, 498.474 663.500 C 499.502 670.073, 506.997 709.222, 507.951 713 C 508.437 714.925, 509.351 719.650, 509.984 723.500 C 510.616 727.350, 512.408 735.900, 513.967 742.500 C 518.175 760.315, 520.031 768.923, 520.865 774.500 C 521.712 780.171, 524.918 787.875, 527.219 789.774 C 528.459 790.798, 532.960 790.822, 550.131 789.900 C 567.793 788.952, 618.624 789.187, 629.906 790.269 C 632.193 790.489, 632.798 789.113, 642.126 762.500 C 650.231 739.377, 661.500 706.699, 667.128 690 C 667.777 688.075, 668.964 684.700, 669.766 682.500 C 672.548 674.871, 682.173 647.415, 687.995 630.500 C 691.213 621.150, 695.464 608.857, 697.441 603.183 C 699.417 597.508, 700.775 592.446, 700.458 591.933 C 699.529 590.429, 613.073 590.746, 610 592.265 C 607.117 593.689, 603.608 600.281, 601.892 607.500 C 601.238 610.250, 600.130 613.850, 599.429 615.500 C 598.728 617.150, 597.860 619.850, 597.499 621.500 C 597.139 623.150, 596.445 625.400, 595.957 626.500 C 595.469 627.600, 592.982 634.350, 590.431 641.500 C 584.357 658.524, 583.298 661, 582.096 661 C 581.543 661, 580.812 659.313, 580.472 657.250 C 579.439 650.983, 571.085 610.001, 569.210 602.002 C 567.104 593.018, 565.761 592.068, 553.510 590.894 C 545.975 590.171, 443.959 590.062, 417.216 590.747 M 209.817 593.016 C 206.157 597.039, 204.686 600.654, 194.558 630.532 C 173.950 691.325, 166.709 711.691, 165.145 713.255 C 164.521 713.879, 150.824 714.508, 129.645 714.885 L 95.161 715.500 92.643 717.866 C 89.249 721.054, 86.256 727.634, 78.611 748.710 C 70.397 771.357, 66.294 787.239, 67.960 789.936 C 68.792 791.281, 78.899 791.527, 87 790.398 C 88.925 790.130, 139.267 789.710, 198.871 789.465 L 307.241 789.020 309.091 785.568 C 311.333 781.386, 314.248 773.527, 318.020 761.500 C 319.573 756.550, 322.458 748.225, 324.431 743 C 326.405 737.775, 329.141 729.692, 330.512 725.037 C 332.706 717.584, 332.828 716.399, 331.530 715.102 C 330.291 713.863, 325.700 713.669, 302.663 713.885 C 273.148 714.161, 267.997 713.753, 268.004 711.139 C 268.010 708.950, 275.775 685.137, 286.473 654.500 C 291.275 640.750, 296.768 625, 298.682 619.500 C 301.853 610.385, 303.107 605.516, 304.670 596.250 C 305.173 593.274, 304.999 593, 302.609 593 C 301.174 593, 300 592.550, 300 592 C 300 591.347, 284.639 591.029, 255.750 591.083 C 214.031 591.162, 211.404 591.272, 209.817 593.016 M 735.475 591.932 C 734.361 592.392, 732.490 594.959, 731.317 597.635 C 728.650 603.719, 717 640.169, 717 642.430 C 717 643.348, 716.290 645.472, 715.422 647.151 C 714.195 649.523, 694.493 706.883, 678.034 756 C 677.020 759.025, 674.123 767.090, 671.595 773.923 C 669.068 780.755, 667 787.413, 667 788.718 C 667 790.956, 667.242 791.050, 671.250 790.370 C 677.873 789.246, 948.784 788.789, 972 789.863 C 987.249 790.567, 992.862 790.514, 993.915 789.655 C 998.471 785.936, 1025.309 715.910, 1023.046 713.645 C 1021.670 712.268, 1013.535 712.057, 952.928 711.832 C 927.864 711.738, 906.807 712.002, 906.134 712.417 C 905.462 712.832, 904.291 712.656, 903.531 712.026 C 902.575 711.232, 898.366 711.049, 889.825 711.431 C 883.046 711.735, 875.475 711.949, 873 711.908 C 870.525 711.867, 865.350 711.916, 861.500 712.017 C 849.046 712.342, 793.871 712.204, 793.518 711.847 C 792.480 710.797, 801.479 681.674, 803.306 680.167 C 805.771 678.135, 845.759 676.761, 882.146 677.457 L 917.792 678.140 920.285 674.820 C 922.812 671.454, 932 649.520, 932 646.853 C 932 646.054, 932.405 644.973, 932.900 644.450 C 933.963 643.329, 948.097 604.657, 949.979 597.721 C 950.692 595.093, 950.952 592.618, 950.555 592.221 C 949.534 591.200, 737.934 590.915, 735.475 591.932 M 1158.500 591.975 C 1157.400 592.434, 1145.993 592.856, 1133.151 592.914 C 1109.839 593.019, 1109.794 593.023, 1104.151 595.759 C 1099.806 597.867, 1097.504 599.886, 1094.189 604.500 C 1088.761 612.054, 1083.608 622.864, 1082.032 630 C 1081.364 633.025, 1080.343 637.169, 1079.762 639.209 C 1079.182 641.250, 1078.671 646.200, 1078.626 650.209 C 1078.539 658.113, 1080.211 662.449, 1085.720 668.608 C 1093.733 677.567, 1099.708 679.015, 1129.778 679.286 C 1151.505 679.481, 1169.982 679.206, 1257.500 677.385 C 1274.916 677.023, 1288.021 676.343, 1288.742 675.765 C 1290.669 674.219, 1325.932 675.827, 1328.705 677.587 C 1335.349 681.805, 1336.952 686.975, 1334.418 696.007 C 1331.406 706.743, 1323.998 711.399, 1307.275 713.069 C 1300.606 713.735, 1252.294 714.324, 1180.500 714.614 C 1116.700 714.872, 1063.469 715.302, 1062.209 715.571 C 1058.717 716.314, 1054.704 723.585, 1047.374 742.443 C 1043.728 751.824, 1039.269 763.100, 1037.466 767.500 C 1029.432 787.104, 1028.437 794.092, 1034.143 790.843 C 1036.084 789.737, 1061.104 789.500, 1176 789.500 C 1252.725 789.500, 1323.727 789.788, 1333.783 790.140 C 1349.993 790.707, 1352.931 790.557, 1359.702 788.823 C 1374.650 784.993, 1387.696 777.489, 1396.885 767.435 C 1403.084 760.653, 1412.072 742.919, 1417.379 727 C 1419.304 721.225, 1422.001 713.534, 1423.371 709.909 C 1431.153 689.325, 1443 640.357, 1443 628.773 C 1443 624.152, 1440.555 615.101, 1437.870 609.784 C 1435.026 604.151, 1425.296 596.580, 1417.827 594.188 C 1410.251 591.763, 1383.672 590.103, 1382.510 591.983 C 1382.009 592.795, 1381.438 592.779, 1380.409 591.925 C 1379.350 591.045, 1369.065 590.928, 1339.248 591.454 C 1317.387 591.840, 1297.700 592.179, 1295.500 592.207 C 1293.300 592.234, 1287.851 591.914, 1283.391 591.495 C 1277.684 590.959, 1275.075 591.069, 1274.582 591.867 C 1273.651 593.373, 1265.722 593.322, 1264.199 591.799 C 1263.265 590.865, 1262.195 590.889, 1259.376 591.909 C 1256.387 592.990, 1255.611 592.989, 1254.942 591.906 C 1254.272 590.822, 1253.702 590.821, 1251.677 591.905 C 1249.711 592.958, 1247.528 592.992, 1240.661 592.078 C 1230.402 590.713, 1176.289 590.724, 1175.444 592.091 C 1174.755 593.205, 1164 592.918, 1164 591.785 C 1164 590.789, 1161.103 590.889, 1158.500 591.975 M 465.332 820.951 C 461.940 821.253, 458.847 821.818, 458.459 822.207 C 457.110 823.558, 458.926 825.922, 462.853 827.925 C 465.025 829.033, 475.754 835.691, 486.695 842.720 C 497.635 849.749, 510.521 857.750, 515.330 860.500 C 520.139 863.250, 527.769 867.655, 532.286 870.290 C 573.032 894.051, 639.538 921.828, 692.083 937.030 C 736.546 949.893, 804.373 962.025, 832.746 962.189 C 842.045 962.242, 842.136 961.836, 829.805 975.206 C 782.761 1026.213, 715.082 1075.940, 657.808 1101.581 C 638.190 1110.365, 638.255 1110.351, 624.500 1108.497 C 604.810 1105.843, 583.593 1101.344, 565.500 1095.988 C 561.650 1094.848, 556.250 1093.289, 553.500 1092.522 C 538.387 1088.309, 518.644 1080.337, 484.113 1064.504 C 466.176 1056.280, 438.897 1039.567, 410 1019.099 C 392.071 1006.399, 384.015 1000.197, 375 992.155 C 370.875 988.476, 364.350 982.781, 360.500 979.500 C 346.807 967.832, 320.583 942.369, 313.641 934 C 309.763 929.325, 302.039 920.325, 296.477 914 C 270.878 884.888, 254.497 861.741, 239.510 833.500 C 232.444 820.187, 233.771 820.999, 219.095 821.009 C 202.907 821.020, 196 821.827, 196 823.706 C 196 824.491, 197.088 826.566, 198.419 828.317 C 199.749 830.068, 204.137 838.188, 208.169 846.363 C 218.691 867.696, 218.364 867.076, 227.785 883.500 C 239.740 904.342, 249.661 918.929, 264.113 936.915 C 270.926 945.393, 277.653 953.798, 279.063 955.592 C 280.473 957.387, 284.827 962.150, 288.740 966.177 C 292.652 970.205, 296.786 974.581, 297.927 975.903 C 299.067 977.225, 300 978.017, 300 977.663 C 300 977.309, 300.900 977.790, 302 978.732 C 303.100 979.674, 304 980.955, 304 981.580 C 304 984.056, 339.164 1015.642, 357.359 1029.510 C 389.447 1053.967, 412.414 1069.645, 436.279 1083.382 C 457.707 1095.717, 465.138 1099.344, 500.817 1114.879 C 506.900 1117.528, 508.503 1118.579, 506.787 1118.795 C 504.764 1119.050, 474.564 1109.084, 459.500 1103.192 C 456.750 1102.116, 450.225 1099.569, 445 1097.532 C 439.775 1095.494, 430.775 1091.490, 425 1088.634 C 407.235 1079.849, 358.333 1048.404, 337 1032.048 C 328.007 1025.153, 302.428 1003.447, 295.219 996.593 C 292.864 994.354, 290.172 992.518, 289.235 992.511 C 288.299 992.505, 287.374 991.600, 287.180 990.500 C 286.986 989.400, 282.889 984.450, 278.076 979.500 C 269.589 970.771, 260.840 961.082, 242.813 940.444 C 218.486 912.594, 194.978 876.289, 169.359 827 L 166.500 821.500 147.890 821.228 C 131.980 820.996, 129.092 821.185, 127.978 822.526 C 124.895 826.242, 146.672 874.222, 167 908.500 C 196.376 958.036, 228.549 997.305, 277.061 1042.834 C 316.359 1079.717, 350.829 1105.040, 400.466 1133.491 C 429.515 1150.142, 434.629 1152.701, 459 1162.785 C 482.654 1172.572, 499.424 1178.385, 524.500 1185.491 C 572.219 1199.013, 597.516 1204.052, 642.500 1208.999 C 658.428 1210.751, 667.644 1211.087, 699.500 1211.080 C 734.545 1211.072, 763.073 1209.746, 765.500 1208.012 C 766.050 1207.620, 769.878 1207.260, 774.006 1207.214 C 782.927 1207.115, 798.897 1204.512, 827.500 1198.495 C 911.738 1180.775, 983.660 1148.933, 1055.288 1097.647 C 1073.482 1084.620, 1080.756 1079.104, 1088.500 1072.462 C 1091.800 1069.632, 1097.200 1065.160, 1100.500 1062.525 C 1103.800 1059.890, 1109.589 1054.988, 1113.365 1051.631 C 1117.140 1048.274, 1121.078 1044.933, 1122.115 1044.207 C 1123.152 1043.481, 1124 1042.289, 1124 1041.558 C 1124 1040.828, 1125.237 1039.427, 1126.750 1038.445 C 1130.452 1036.043, 1156 1010.912, 1156 1009.673 C 1156 1009.134, 1160.612 1004.144, 1166.250 998.585 C 1175.596 989.368, 1184.705 978.790, 1187.660 973.720 C 1188.297 972.625, 1189.197 971.453, 1189.660 971.115 C 1191.186 969.998, 1200 958.187, 1200 957.259 C 1200 956.758, 1201.172 955.258, 1202.605 953.924 C 1204.787 951.894, 1210.322 944.324, 1222.797 926.310 C 1223.868 924.765, 1227.340 919.225, 1230.514 914 C 1233.688 908.775, 1238.021 901.898, 1240.143 898.719 C 1242.264 895.539, 1244 892.741, 1244 892.502 C 1244 892.263, 1247.439 885.864, 1251.642 878.284 C 1267.880 848.998, 1280.033 823.697, 1278.565 822.233 C 1278.160 821.830, 1261.250 821.500, 1240.987 821.500 C 1205.615 821.500, 1204.037 821.580, 1201.447 823.515 C 1199.964 824.623, 1195.811 830.698, 1192.219 837.015 C 1175.930 865.657, 1167.381 877.687, 1153.052 892.126 C 1139.160 906.125, 1131.666 909.601, 1097.500 917.895 C 1090.900 919.497, 1085.325 920.638, 1085.110 920.431 C 1084.896 920.224, 1087.205 916.329, 1090.241 911.777 C 1093.277 907.225, 1097.525 900.350, 1099.681 896.500 C 1104.018 888.754, 1119 858.517, 1119 857.510 C 1119 857.159, 1120.065 854.538, 1121.366 851.686 C 1126.414 840.620, 1130.849 829.356, 1131.393 826.218 C 1131.894 823.330, 1131.635 822.809, 1129.231 821.872 C 1125.512 820.424, 1067.236 821.268, 1064.350 822.813 C 1062.652 823.721, 1057 833.562, 1057 835.610 C 1057 836.731, 1050.628 850.796, 1045.407 861.200 C 1036.319 879.309, 1017.034 912.296, 1013.234 916.231 C 1009.178 920.432, 1004.366 922.311, 991.965 924.538 C 977.748 927.092, 944.451 929.560, 945.258 928 C 951.529 915.880, 953.844 911.678, 958.294 904.335 C 964.656 893.837, 979.858 863.122, 986.917 846.500 C 987.384 845.400, 989.662 840.163, 991.978 834.863 C 994.295 829.562, 996.027 824.387, 995.827 823.363 C 995.481 821.589, 993.960 821.507, 963.982 821.650 C 946.667 821.732, 931.150 822.192, 929.500 822.672 C 926.785 823.462, 925.264 826.020, 913.500 849.586 C 900.615 875.398, 890.825 892.927, 879.767 909.988 C 872.226 921.622, 872.165 921.643, 849.588 920.076 C 826.692 918.487, 787.545 913.412, 772 910.018 C 769.525 909.478, 764.800 908.593, 761.500 908.052 C 751.854 906.470, 736.275 903.153, 725.500 900.387 C 699.256 893.649, 663.731 883.525, 647.135 878.054 C 637.034 874.724, 628.011 872, 627.085 872 C 626.158 872, 624.973 871.600, 624.450 871.110 C 623.928 870.621, 615.625 867.281, 606 863.688 C 576.855 852.808, 561.318 846.410, 537.814 835.612 C 534.687 834.175, 531.924 833, 531.675 833 C 531.426 833, 528.148 831.204, 524.391 829.008 C 512.662 822.154, 507.735 821.013, 488.456 820.688 C 479.130 820.531, 468.725 820.649, 465.332 820.951 M 1104 955.060 C 1101.525 955.513, 1091.871 956.628, 1082.546 957.539 C 1065.801 959.173, 1065.544 959.234, 1061.724 962.504 C 1059.596 964.325, 1055.174 970.019, 1051.897 975.158 C 1048.620 980.296, 1044.265 986.793, 1042.219 989.596 C 1040.174 992.399, 1036.279 997.799, 1033.565 1001.596 C 1030.851 1005.393, 1026.767 1010.750, 1024.490 1013.500 C 1019.925 1019.014, 1002.761 1044.094, 1003.230 1044.564 C 1003.393 1044.726, 1009 1041.403, 1015.690 1037.179 C 1039.867 1021.916, 1072.372 995.231, 1101.474 966.754 C 1115.694 952.841, 1115.676 952.923, 1104 955.060 M 972 963.094 C 966.692 964.541, 961.231 964.878, 942.215 964.933 C 915.483 965.010, 916.410 964.747, 909.824 974.135 C 907.561 977.361, 905.325 980, 904.855 980 C 904.385 980, 904 980.497, 904 981.105 C 904 983.717, 861.949 1027.766, 846 1041.861 C 841.325 1045.993, 833.900 1052.592, 829.500 1056.525 C 819.609 1065.367, 792.844 1085.443, 775.500 1097.030 C 761.695 1106.252, 751.569 1113.902, 752.256 1114.589 C 752.485 1114.818, 755.108 1114.171, 758.086 1113.152 C 761.064 1112.133, 765.300 1110.978, 767.500 1110.586 C 774.683 1109.307, 788.153 1105.921, 792.372 1104.333 C 808.414 1098.296, 830.291 1088.014, 843 1080.537 C 869.946 1064.684, 879.518 1058.323, 898.070 1043.937 C 920.106 1026.850, 940.919 1007.242, 966.322 979.636 C 983.060 961.446, 983.577 959.940, 972 963.094" stroke="none" fill="#0795e7" fill-rule="evenodd"/></svg>